# xmcd
#
# Track frame offsets: 
#        150
#        25581
#        37578
#        59940
#        76745
#        103872
#        117631
#        133889
#        151910
#        166879
#        180638
#        188375
#
# Disc length: 2683 seconds
#
# Revision: 0
# Processed by: cddbd v1.5.2PL0 Copyright (c) Steve Scherf et al.
# Submitted via: ExactAudioCopy v1.0b4
#
DISCID=930a790c
DTITLE=Little G Weevil - Three Chords Too Many
DYEAR=2016
DGENRE=Blues
TTITLE0=Apple Picker
TTITLE1=Dad's Story
TTITLE2=You're The One
TTITLE3=Going Back South
TTITLE4=Place A Dollar In My Hand
TTITLE5=The Tale Of Captain Siegal
TTITLE6=One Little Cup
TTITLE7=Wealthy Man
TTITLE8=Outdated Citizen
TTITLE9=Sunshine Blues
TTITLE10=Meet Me In The City
TTITLE11=Saving A Marriage
EXTD=
EXTT0=
EXTT1=
EXTT2=
EXTT3=
EXTT4=
EXTT5=
EXTT6=
EXTT7=
EXTT8=
EXTT9=
EXTT10=
EXTT11=
PLAYORDER=
